<?xml version="1.0" encoding="utf-8"?>
<!-- Generator: Adobe Illustrator 21.0.0, SVG Export Plug-In . SVG Version: 6.00 Build 0)  -->
<svg version="1.1" xmlns="http://www.w3.org/2000/svg" xmlns:xlink="http://www.w3.org/1999/xlink" x="0px" y="0px"
	 viewBox="0 0 576.6 105.5" style="enable-background:new 0 0 576.6 105.5;" xml:space="preserve">
<g id="logo">
	<g>
		<path class="bg-logo" d="M52.8,85.1v-1.7h7.3V38.9h-7.3v-1.7h22.1v1.7h-7.3v44.4h11.4c3.7,0,6.7-1.2,8.8-3.5c2.1-2.4,3.7-5.6,4.7-9.7
			l0.1-0.3H94v15.3H52.8z"/>
	</g>
	<g>
		<polygon class="bg-logo" points="104.9,85.4 104.9,83.7 112.3,83.7 112.3,65.2 97.6,39.2 91.4,39.2 91.4,37.5 112.4,37.5 112.4,39.2 
			106.1,39.2 118.6,61.3 130.4,39.2 124,39.2 124,37.5 139,37.5 139,39.2 132.4,39.2 119.7,63.1 119.7,83.7 127,83.7 127,85.4 		"/>
	</g>
	<g>
		<path class="bg-logo" d="M151.1,85.4v-1.7h7.3V39.2H155c-0.9,0-1.8,0.1-2.9,0.2c-1,0.1-2.1,0.6-3.2,1.2c-1.1,0.7-2.1,1.8-3.1,3.2
			c-1,1.5-1.9,3.6-2.6,6.2l-0.1,0.3h-1.4V37.5h41v12.9h-1.4l-0.1-0.3c-0.7-2.6-1.6-4.7-2.6-6.2c-1-1.5-2.1-2.6-3.1-3.2
			c-1.1-0.7-2.1-1.1-3.2-1.2c-1.1-0.2-2.1-0.2-2.9-0.2h-3.4v44.4h7.3v1.7H151.1z"/>
	</g>
	<g>
		<polygon class="bg-logo" points="215.1,85.4 215.1,83.7 222.5,83.7 222.5,61.8 201.2,61.8 201.2,83.7 208.6,83.7 208.6,85.4 
			186.5,85.4 186.5,83.7 193.8,83.7 193.8,39.2 186.5,39.2 186.5,37.5 208.6,37.5 208.6,39.2 201.2,39.2 201.2,60.1 222.5,60.1 
			222.5,39.2 215.1,39.2 215.1,37.5 237.2,37.5 237.2,39.2 229.9,39.2 229.9,83.7 237.2,83.7 237.2,85.4 		"/>
	</g>
	<g>
		<path class="bg-logo" d="M241.2,85.4v-1.7h7.3V39.2h-7.3v-1.7h38.6v12.2h-1.4l-0.1-0.3c-0.6-1.7-1.2-3.2-1.8-4.5
			c-0.6-1.3-1.4-2.3-2.3-3.2c-0.9-0.9-1.9-1.5-3.2-1.9c-1.2-0.4-2.7-0.6-4.5-0.6h-10.6v19.6h3.9c1.4,0,2.6-0.1,3.6-0.4
			c0.9-0.2,1.8-0.7,2.4-1.4c0.7-0.7,1.3-1.6,1.8-2.8c0.5-1.2,1-2.8,1.5-4.8l0.1-0.3h1.4v21.4h-1.4l-0.1-0.3c-0.3-1.3-0.6-2.5-1-3.7
			c-0.3-1.1-0.8-2.2-1.3-3.1c-0.6-0.9-1.3-1.6-2.2-2.1c-0.9-0.5-2.2-0.8-3.7-0.8h-5v23.1H268c2.3,0,4.3-0.5,5.8-1.5
			c1.6-1,2.8-2.2,3.8-3.6c1-1.4,1.7-2.9,2.2-4.4c0.5-1.5,0.8-2.8,0.9-3.8l0-0.3h1.5v15.3H241.2z"/>
	</g>
	<g>
		<g>
			<path class="bg-logo" d="M365.2,86.9c-4,0-7.5-0.7-10.6-2c-3.1-1.3-6.1-3.4-8.9-6.3c-2.8-2.8-5.1-6.1-7-9.9
				c-1.8-3.8-2.8-8.1-2.8-12.9c0-3.2,0.4-6.1,1.1-8.6c0.7-2.5,1.6-4.8,2.6-6.7c1-1.9,2.1-3.5,3.2-4.8c1.1-1.3,2-2.3,2.7-3
				c2.5-2.5,5.4-4.6,8.7-6.1c3.2-1.6,7-2.4,11.1-2.4c2.1,0,3.9,0.2,5.3,0.5c1.4,0.3,2.6,0.7,3.6,1.1l2.7,1.1
				c0.8,0.3,1.6,0.5,2.5,0.5c1,0,1.7-0.1,2.1-0.4c0.4-0.3,0.9-0.7,1.3-1.2l0.1-0.2h1.8v17.4h-1.7l-0.1-0.3c-0.2-1.4-0.6-3.1-1.3-5
				c-0.6-1.9-1.6-3.7-2.9-5.4c-1.3-1.7-3.1-3.2-5.3-4.4c-2.2-1.2-5-1.8-8.4-1.8c-4,0-7.3,0.9-9.8,2.5c-2.4,1.7-4.4,4-5.8,6.7
				c-1.4,2.8-2.3,6-2.8,9.5c-0.5,3.6-0.7,7.2-0.7,10.8c0,2.5,0.1,5,0.3,7.4c0.2,2.5,0.6,4.8,1.1,7c0.5,2.2,1.2,4.2,2.2,6.1
				c0.9,1.8,2.1,3.4,3.6,4.7c1.6,1.5,3.3,2.5,5,3c1.7,0.6,4,0.9,6.8,0.9c1.7,0,3.4-0.3,5-0.9c1.7-0.6,3.2-1.4,4.5-2.5
				c1.3-1.1,2.4-2.6,3.2-4.3c0.8-1.7,1.2-3.8,1.2-6.2v-6.6h-10.7v-2h26.1v2h-6.6v18.8h-1.6l-0.1-0.1c-0.6-0.6-1.1-1-1.4-1.2
				c-0.2-0.1-0.7-0.3-1.6-0.3c-0.9,0-1.9,0.3-2.8,0.7c-1,0.5-2.2,1.1-3.6,1.8c-1.4,0.7-3,1.3-4.8,1.8
				C370.1,86.6,367.8,86.9,365.2,86.9z"/>
		</g>
	</g>
	<g>
		<path class="bg-logo" d="M25,86c-0.8,0-1.5,0-2.3,0c-0.8,0-1.5-0.1-2.4-0.1c-0.8-0.1-1.7-0.1-2.6-0.1c-0.9,0-1.8,0-2.8,0H0v-2h9.2v-56
			H0v-2h14.9c0.8,0,1.7,0,2.5,0c0.9,0,1.7-0.1,2.6-0.1c0.9,0,1.8,0,2.6,0c0.8,0,1.6,0,2.4,0c4.1,0,7.5,0.5,10.1,1.5
			c2.6,1,4.8,2.2,6.3,3.7c1.5,1.4,2.6,3,3.2,4.7c0.6,1.7,0.9,3.2,0.9,4.6c0,1.9-0.4,3.6-1.2,5.2c-0.8,1.6-1.9,3-3.3,4.2
			c-1.4,1.2-3,2.2-4.8,2.9c-1.1,0.5-2.3,0.8-3.5,1.1c1.3,0.2,2.7,0.6,4,1c2.1,0.7,4,1.7,5.8,3c1.7,1.3,3.1,2.9,4.2,4.7
			c1.1,1.9,1.6,4.1,1.6,6.5c0,2.5-0.5,4.9-1.4,7c-1,2.1-2.4,4-4.3,5.5c-1.9,1.5-4.4,2.7-7.3,3.6C32.2,85.5,28.8,86,25,86z
			 M18.3,83.7c0.6,0,1.2,0.1,1.8,0.2c0.8,0.1,1.9,0.1,3.4,0.1c2.6,0,4.8-0.2,6.6-0.7c1.8-0.5,3.2-1.3,4.4-2.5c1.1-1.2,2-2.8,2.5-4.8
			c0.5-2,0.8-4.6,0.8-7.6c0-4.3-0.9-7.8-2.7-10.2c-1.8-2.4-4.5-3.7-8.1-3.7h-8.7V83.7z M25.5,52.5c1.5,0,2.9-0.2,4.1-0.6
			c1.2-0.4,2.2-1,3.1-1.9c0.9-0.9,1.5-2.2,2-3.8c0.5-1.6,0.7-3.7,0.7-6.2c0-2.8-0.4-5.1-1.1-6.8c-0.7-1.7-1.6-2.9-2.8-3.8
			c-1.1-0.8-2.4-1.4-3.8-1.7c-1.4-0.3-2.9-0.4-4.3-0.4c-1,0-2,0-3,0c-0.8,0-1.6,0.1-2.2,0.2v24.9H25.5z"/>
	</g>
	<g>
		<path class="bg-logo" d="M438.8,86.1c-1.8,0-3.3-0.2-4.5-0.7c-1.2-0.5-2.2-1.2-3-2.1c-0.7-0.9-1.3-2-1.6-3.3c-0.3-1.3-0.6-2.8-0.7-4.5
			l-0.5-6c-0.2-2.1-0.6-3.8-1.3-5c-0.7-1.2-1.5-2-2.3-2.6c-0.9-0.5-1.8-0.9-2.8-1c-1-0.1-1.9-0.2-2.6-0.2h-6.2v23.1h7.3v1.7h-22.1
			v-1.7h7.3V39.5h-7.3v-1.7h13c0.5,0,1,0,1.6,0c0.5,0,1-0.1,1.6-0.1c0.6,0,1.1,0,1.6,0c0.5,0,1.1,0,1.6,0c2.6,0,4.9,0.1,6.9,0.4
			c2,0.3,4,1.2,5.7,2.6c1.6,1.2,2.7,2.6,3.4,4.2c0.7,1.5,1,3,1,4.4c0,0.7-0.1,1.6-0.4,2.6c-0.3,1.1-0.8,2.2-1.7,3.3
			c-0.8,1.1-2.1,2.2-3.7,3.1c-1.1,0.7-2.6,1.2-4.3,1.5c0.3,0.1,0.6,0.1,0.9,0.2c1.2,0.2,2.5,0.7,3.8,1.3c1.3,0.6,2.5,1.4,3.6,2.3
			c1.1,1,1.9,2.3,2.4,3.9c0.3,0.9,0.5,1.9,0.6,3.1c0.1,1.1,0.2,2.3,0.3,3.5c0.1,1.2,0.1,2.3,0.2,3.4c0.1,1.1,0.2,2,0.4,2.7
			c0.3,1.1,0.7,2.1,1.2,3c0.5,0.8,1.3,1.2,2.4,1.2c0.5,0,1.1-0.1,1.7-0.3c0.6-0.2,1.1-0.5,1.5-1l0.3-0.3l1.1,1.4l-0.3,0.3
			c-0.2,0.2-0.5,0.4-0.8,0.6c-0.3,0.2-0.7,0.4-1.2,0.6c-0.5,0.2-1,0.3-1.7,0.5C440.5,86,439.7,86.1,438.8,86.1z M418.9,59.1
			c1.2,0,2.3-0.2,3.3-0.4c0.9-0.3,1.8-0.8,2.4-1.5c0.7-0.7,1.2-1.7,1.6-3c0.4-1.3,0.6-2.9,0.6-4.9c0-2.2-0.3-4-0.9-5.4
			c-0.6-1.3-1.3-2.3-2.2-3c-0.9-0.7-1.9-1.1-3-1.3c-1.1-0.2-2.3-0.3-3.4-0.3c-0.8,0-1.6,0-2.4,0c-0.6,0-1.2,0.1-1.7,0.1v19.7H418.9z
			"/>
	</g>
	<g>
		<path class="bg-logo" d="M470.2,85.6v-1.7h7.2l-6.6-17.6h-14.8l-6.6,17.6h7.2v1.7h-15v-1.7h5.9l17.8-47.3h2.1l18,47.3h6v1.7H470.2z
			 M470,64.6l-6.7-17.7l-6.7,17.7H470z"/>
	</g>
	<g>
		<path class="bg-logo" d="M513.5,86.6c-2.8,0-5.6-0.5-8.2-1.5c-2.7-1-5.2-2.7-7.6-5c-2.2-2.2-4-4.8-5.5-7.8c-1.5-3-2.2-6.5-2.2-10.4
			c0-3.3,0.6-6.6,1.8-9.6c1.2-3,2.9-5.7,5-8.1c2.1-2.3,4.7-4.2,7.6-5.5c2.9-1.4,6.1-2.1,9.6-2.1c1.4,0,2.6,0.1,3.7,0.4
			c1.1,0.3,2,0.6,2.9,0.9c0.8,0.3,1.6,0.6,2.3,0.9c0.7,0.2,1.3,0.4,1.9,0.4c1,0,1.4-0.2,1.6-0.3c0.4-0.3,0.7-0.6,1-0.9l0.1-0.1h1.6
			v14h-1.4l-0.1-0.3c-0.4-1.6-0.9-3.3-1.5-4.9c-0.6-1.6-1.4-3-2.5-4.2c-1.1-1.2-2.4-2.2-4.1-2.9c-1.6-0.7-3.7-1.1-6.1-1.1
			c-2.3,0-4.2,0.4-5.9,1.1c-1.6,0.7-3,1.6-4.1,2.8c-1.1,1.2-2,2.6-2.7,4.1c-0.7,1.6-1.2,3.3-1.5,5c-0.3,1.8-0.6,3.6-0.7,5.4
			c-0.1,1.8-0.2,3.5-0.2,5.2c0,4.6,0.4,8.4,1.1,11.4c0.7,3,1.8,5.3,3.1,7.1c1.3,1.7,2.9,2.9,4.7,3.6c1.8,0.7,3.9,1,6.1,1
			c2.9,0,5.2-0.4,7-1.2c1.7-0.8,3.2-1.9,4.2-3.2c1.1-1.3,1.9-2.8,2.4-4.4c0.6-1.7,1.1-3.4,1.5-5l0.1-0.3h1.4v14.9h-1.6l-0.1-0.1
			c-0.3-0.3-0.6-0.6-1-0.9c-0.3-0.2-0.9-0.4-1.6-0.4c-0.6,0-1.3,0.1-2,0.3c-0.8,0.2-1.7,0.5-2.6,0.8c-1,0.3-2.1,0.6-3.4,0.8
			C516.4,86.5,515,86.6,513.5,86.6z"/>
	</g>
	<g>
		<path class="bg-logo" d="M535.5,85.6v-1.7h7.3V39.5h-7.3v-1.7h38.6V50h-1.4l-0.1-0.3c-0.6-1.7-1.2-3.2-1.8-4.5
			c-0.6-1.3-1.4-2.3-2.3-3.2c-0.9-0.9-1.9-1.5-3.2-1.9c-1.2-0.4-2.7-0.6-4.5-0.6h-10.6v19.6h3.9c1.4,0,2.6-0.1,3.6-0.4
			c0.9-0.2,1.8-0.7,2.4-1.4c0.7-0.7,1.3-1.6,1.8-2.8c0.5-1.2,1-2.8,1.5-4.8l0.1-0.3h1.4v21.4h-1.4l-0.1-0.3c-0.3-1.3-0.6-2.5-1-3.7
			c-0.3-1.1-0.8-2.2-1.3-3.1c-0.6-0.9-1.3-1.6-2.2-2.1c-0.9-0.5-2.2-0.8-3.7-0.8h-5v23.1h12.1c2.3,0,4.3-0.5,5.8-1.5
			c1.6-1,2.8-2.2,3.8-3.6c1-1.4,1.7-2.9,2.2-4.4c0.5-1.5,0.8-2.8,0.9-3.8l0-0.3h1.5v15.3H535.5z"/>
	</g>
	<rect x="309.8" class="bg-logo" width="2.8" height="105.5"/>
</g>
</svg>
